<?xml version="1.0" encoding="UTF-8" standalone="no"?>
<!DOCTYPE svg PUBLIC "-//W3C//DTD SVG 1.1//EN" "http://www.w3.org/Graphics/SVG/1.1/DTD/svg11.dtd">
<svg width="100%" height="100%" viewBox="0 0 850 285" version="1.1" xmlns="http://www.w3.org/2000/svg" xmlns:xlink="http://www.w3.org/1999/xlink" xml:space="preserve" xmlns:serif="http://www.serif.com/" style="fill-rule:evenodd;clip-rule:evenodd;stroke-linejoin:round;stroke-miterlimit:2;">
    <path d="M850,14.216C850,6.37 843.63,0 835.784,0L14.216,0C6.37,0 0,6.37 0,14.216L0,270.105C0,277.951 6.37,284.321 14.216,284.321L835.784,284.321C843.63,284.321 850,277.951 850,270.105L850,14.216Z" style="fill:url(#_Linear1);"/>
    <g transform="matrix(1,0,0,1,178.313,143.592)">
        <path d="M0,4.704C-0.128,4.841 -0.265,4.977 -0.394,5.114C2.274,15.556 3.344,24.911 2.771,33.129C2.771,53.789 -14.35,70.712 -34.154,74.458C-32.804,73.577 -31.538,72.602 -30.375,71.542C-24.551,66.24 -21.318,58.945 -22.226,51.335C-22.986,44.938 -26.544,39.448 -31.76,35.626C-24.568,44.604 -28.031,57.928 -38.499,62.562C-39.893,63.179 -41.338,63.691 -42.825,64.085C-49.889,65.949 -57.979,64.701 -63.417,59.809C-67.043,56.543 -69.258,51.942 -70.481,47.222C-72.551,39.243 -71.978,30.606 -68.891,22.97C-65.795,15.333 -60.193,8.731 -53.155,4.447C-48.598,1.668 -43.527,-0.137 -38.678,-2.385C-33.829,-4.634 -29.503,-7.457 -26.278,-11.707C-38.85,-6.071 -53.977,-10.792 -56.389,-26.561C-57.919,-22.567 -61.117,-19.403 -65.137,-17.923C-66.753,-17.325 -68.497,-17 -70.318,-17C-70.84,-17 -71.362,-17.025 -71.892,-17.077C-78.75,-17.778 -84.334,-23.276 -85.138,-30.118C-86.207,-39.182 -79.152,-46.87 -70.318,-46.87C-68.497,-46.87 -66.753,-46.545 -65.137,-45.946C-56.567,-62.613 -42.638,-67.522 -29.469,-67.522C-14.862,-67.522 -2.898,-61.083 1.454,-49.453C3.344,-44.416 3.489,-38.721 1.197,-32.76C6.79,-39.054 8.791,-46.22 7.2,-54.241C9.142,-51.582 10.476,-48.153 11.869,-43.415C16.854,-26.475 12.178,-8.089 0,4.704M31.726,-60.561C31.743,-60.86 31.743,-61.1 31.743,-61.254C31.743,-69.754 24.551,-76.595 15.914,-76.047C10.698,-75.714 6.089,-72.507 3.617,-67.898L0.906,-62.853C-6.756,-70.977 -18.565,-76.073 -31.179,-76.073C-47.255,-76.073 -61.271,-67.966 -70.318,-53.643C-70.883,-53.686 -71.456,-53.711 -72.028,-53.711C-78.237,-53.711 -84.163,-51.052 -88.294,-46.408C-92.424,-41.765 -94.374,-35.54 -93.646,-29.322C-92.441,-19.112 -84.01,-10.988 -73.705,-10.227C-73.696,-10.227 -73.696,-10.227 -73.696,-10.219C-73.851,-5.259 -75.501,-0.504 -78.494,3.592C-92.415,22.628 -96.127,46.529 -87.729,63.067C-81.769,74.825 -70.541,81.299 -56.132,81.299L-3.036,81.299C-2.181,81.299 -1.343,81.137 -0.547,80.829C10.758,76.425 18.188,66.667 19.326,54.738C20.259,44.998 17.496,35.797 10.612,29.81C10.706,22.892 9.825,15.273 7.97,7.072C15.982,-1.898 21.011,-11.809 25.056,-23.097C28.946,-33.966 31.136,-46.212 31.726,-60.561" style="fill:white;fill-rule:nonzero;"/>
    </g>
    <g transform="matrix(1,0,0,1,145.314,104.677)">
        <path d="M0,-7.78C-2.773,-8.422 -4.999,-11.478 -4.841,-14.321C-4.828,-14.547 -4.804,-14.766 -4.769,-14.98C-10.868,-14.839 -15.747,-9.728 -15.482,-3.527C-15.243,2.099 -10.583,6.739 -4.957,6.957C1.309,7.2 6.453,2.189 6.453,-4.008C6.453,-5.758 6.039,-7.426 5.309,-8.887C3.886,-7.815 2.017,-7.313 0,-7.78" style="fill:white;fill-rule:nonzero;"/>
    </g>
    <g transform="matrix(1,0,0,1,172.728,95.825)">
        <path d="M0,-1.273L-0.321,-1.252C-1.039,-1.206 -1.78,-1.156 -2.423,-1.427C-3.306,-1.803 -3.962,-2.804 -4.179,-4.105C-4.28,-4.715 -4.3,-5.351 -4.316,-5.966C-4.332,-6.508 -4.348,-7.068 -4.42,-7.617C-4.538,-8.472 -4.93,-10.01 -6.246,-10.714C-6.903,-11.054 -7.709,-11.027 -8.348,-10.645C-9.68,-9.845 -11.009,-9.055 -12.382,-8.242C-13.06,-7.836 -13.759,-7.416 -14.299,-6.81C-14.946,-6.104 -15.25,-5.252 -15.131,-4.471C-14.977,-3.484 -14.141,-2.616 -12.891,-2.149C-12.33,-1.945 -11.743,-1.827 -11.176,-1.714C-10.718,-1.622 -10.242,-1.527 -9.794,-1.388C-8.641,-1.019 -7.84,-0.345 -7.597,0.461C-7.411,1.063 -7.516,1.803 -7.892,2.545C-8.365,3.491 -9.155,4.271 -10.118,4.741C-10.3,4.829 -10.489,4.909 -10.679,4.989C-11.497,5.334 -12.345,5.69 -12.629,6.733C-12.817,7.425 -12.619,8.206 -12.112,8.774C-11.516,9.439 -10.68,9.781 -9.727,9.781C-9.138,9.781 -8.505,9.65 -7.855,9.386C-5.62,8.478 -3.972,6.22 -3.747,3.813C-2.131,4.831 0.094,4.82 1.676,3.752C2.464,3.227 3.011,2.517 3.216,1.754L3.216,1.753C3.456,0.846 3.188,-0.131 2.55,-0.677C1.845,-1.294 0.82,-1.319 0,-1.273" style="fill:white;fill-rule:nonzero;"/>
    </g>
    <g transform="matrix(-1,0,0,1,107.89,119.908)">
        <path d="M0,-16.531C4.564,-16.531 8.266,-12.83 8.266,-8.265C8.266,-3.7 4.564,0 0,0C-4.565,0 -8.266,-3.7 -8.266,-8.265C-8.266,-12.83 -4.565,-16.531 0,-16.531" style="fill:white;fill-rule:nonzero;"/>
    </g>
    <g transform="matrix(112.67,-252.996,-252.996,-112.67,72.1694,251.317)">
        <path d="M0.846,0.128C0.843,0.126 0.84,0.124 0.837,0.122L0.556,0.326C0.56,0.336 0.56,0.348 0.555,0.359C0.546,0.381 0.52,0.391 0.498,0.381C0.479,0.373 0.469,0.354 0.472,0.335L0.352,0.282C0.34,0.296 0.319,0.302 0.301,0.294C0.279,0.284 0.269,0.258 0.278,0.236C0.288,0.214 0.314,0.204 0.336,0.214C0.355,0.222 0.365,0.241 0.362,0.26L0.482,0.314C0.494,0.299 0.515,0.293 0.533,0.301C0.537,0.303 0.54,0.305 0.543,0.307L0.823,0.103C0.819,0.093 0.819,0.081 0.824,0.07C0.829,0.059 0.838,0.051 0.848,0.047L0.812,-0.298C0.808,-0.299 0.804,-0.3 0.8,-0.301C0.778,-0.311 0.768,-0.337 0.778,-0.359C0.788,-0.381 0.814,-0.391 0.836,-0.381C0.858,-0.372 0.868,-0.346 0.858,-0.324C0.853,-0.313 0.845,-0.305 0.835,-0.301L0.871,0.045C0.875,0.045 0.879,0.046 0.882,0.048C0.904,0.058 0.914,0.084 0.904,0.106C0.894,0.128 0.869,0.138 0.846,0.128Z" style="fill:url(#_Linear2);fill-rule:nonzero;"/>
    </g>
    <g transform="matrix(112.67,-252.996,-252.996,-112.67,116.477,271.049)">
        <path d="M0.604,-0.214C0.585,-0.222 0.576,-0.241 0.578,-0.26L0.459,-0.313C0.447,-0.298 0.426,-0.293 0.408,-0.301C0.404,-0.303 0.401,-0.305 0.398,-0.307L0.117,-0.103C0.121,-0.093 0.121,-0.081 0.116,-0.07C0.112,-0.059 0.103,-0.051 0.093,-0.047L0.129,0.298C0.132,0.299 0.136,0.3 0.139,0.301C0.161,0.311 0.171,0.337 0.162,0.359C0.152,0.381 0.126,0.391 0.104,0.381C0.082,0.371 0.072,0.345 0.082,0.323C0.086,0.312 0.095,0.304 0.106,0.3L0.069,-0.045C0.066,-0.045 0.062,-0.046 0.059,-0.048C0.037,-0.058 0.027,-0.083 0.037,-0.106C0.046,-0.128 0.072,-0.138 0.094,-0.128C0.098,-0.126 0.101,-0.124 0.104,-0.122L0.384,-0.326C0.38,-0.336 0.38,-0.348 0.385,-0.359C0.395,-0.381 0.421,-0.391 0.443,-0.381C0.462,-0.373 0.471,-0.354 0.469,-0.335L0.588,-0.282C0.6,-0.296 0.621,-0.302 0.64,-0.294C0.662,-0.284 0.672,-0.258 0.662,-0.236C0.652,-0.214 0.626,-0.204 0.604,-0.214Z" style="fill:url(#_Linear3);fill-rule:nonzero;"/>
    </g>
    <g transform="matrix(1,0,0,1,410.264,172.302)">
        <path d="M0,-60.283L-13.48,-60.283C-18.843,-60.283 -23.035,-58.766 -26.069,-55.732C-29.103,-52.698 -30.62,-48.506 -30.62,-43.143L-30.62,0L-18.443,0L-18.443,-42.437C-18.443,-44.726 -17.818,-46.51 -16.554,-47.814C-15.29,-49.118 -13.56,-49.77 -11.351,-49.77L0,-49.77L0,-60.283Z" style="fill:white;fill-rule:nonzero;"/>
    </g>
    <g transform="matrix(1,0,0,1,457.705,131.461)">
        <path d="M0,21.399C-1.57,24.672 -3.779,27.228 -6.613,29.078C-9.448,30.927 -12.762,31.859 -16.541,31.859C-20.56,31.859 -23.993,30.914 -26.827,29.024C-29.662,27.134 -31.817,24.592 -33.269,21.399C-34.732,18.206 -35.464,14.679 -35.464,10.819C-35.464,6.801 -34.706,3.194 -33.215,0.001C-31.712,-3.193 -29.529,-5.735 -26.654,-7.624C-23.78,-9.514 -20.373,-10.459 -16.421,-10.459C-12.562,-10.459 -9.235,-9.528 -6.44,-7.678C-3.646,-5.828 -1.477,-3.326 0.066,-0.172C1.598,2.982 2.369,6.521 2.369,10.46C2.369,14.479 1.584,18.126 0,21.399M0.479,-16.661C-4.099,-19.468 -9.647,-20.866 -16.195,-20.866C-22.809,-20.866 -28.491,-19.468 -33.215,-16.661C-37.939,-13.866 -41.572,-10.086 -44.088,-5.322C-46.616,-0.545 -47.866,4.791 -47.866,10.7C-47.866,16.529 -46.749,21.851 -44.5,26.656C-42.251,31.46 -39.03,35.265 -34.813,38.06C-30.594,40.855 -25.604,42.265 -19.854,42.265C-15.915,42.265 -12.522,41.627 -9.688,40.376C-6.854,39.111 -4.444,37.474 -2.475,35.465C-0.505,33.456 1.064,31.353 2.249,29.144L2.489,29.144L2.489,40.841L14.785,40.841L14.785,10.46C14.785,4.631 13.534,-0.651 11.059,-5.375C8.57,-10.1 5.044,-13.866 0.479,-16.661" style="fill:white;fill-rule:nonzero;"/>
    </g>
    <g transform="matrix(1,0,0,1,532.081,155.747)">
        <path d="M0,-2.594C-1.61,0.559 -3.833,3.021 -6.681,4.792C-9.515,6.575 -12.748,7.453 -16.368,7.453C-19.922,7.453 -23.102,6.588 -25.949,4.858C-28.784,3.115 -31.02,0.653 -32.684,-2.528C-34.333,-5.721 -35.158,-9.448 -35.158,-13.706C-35.158,-17.885 -34.36,-21.544 -32.736,-24.698C-31.126,-27.852 -28.877,-30.314 -26.003,-32.084C-23.129,-33.853 -19.922,-34.745 -16.368,-34.745C-12.828,-34.745 -9.635,-33.853 -6.787,-32.084C-3.952,-30.314 -1.717,-27.852 -0.054,-24.698C1.597,-21.544 2.422,-17.844 2.422,-13.586C2.422,-9.407 1.623,-5.748 0,-2.594M6.215,-36.342C3.446,-39.217 0.16,-41.399 -3.659,-42.903C-7.479,-44.393 -11.724,-45.152 -16.368,-45.152C-22.356,-45.152 -27.692,-43.874 -32.391,-41.305C-37.074,-38.751 -40.761,-35.078 -43.436,-30.314C-46.124,-25.55 -47.454,-19.774 -47.454,-13.001L-47.454,42.558L-35.278,42.558L-35.278,6.628L-35.158,6.628C-33.828,8.837 -32.111,10.806 -30.021,12.537C-27.933,14.266 -25.551,15.61 -22.876,16.555C-20.187,17.5 -17.393,17.979 -14.479,17.979C-8.796,17.979 -3.766,16.688 0.652,14.134C5.07,11.578 8.53,7.985 11.059,3.381C13.574,-1.237 14.838,-6.613 14.838,-12.761C14.838,-17.645 14.093,-22.076 12.589,-26.055C11.099,-30.034 8.97,-33.468 6.215,-36.342" style="fill:white;fill-rule:nonzero;"/>
    </g>
    <g transform="matrix(1,0,0,1,602.318,144.289)">
        <path d="M0,-30.26C-3.953,-32.549 -8.637,-33.694 -14.079,-33.694C-17.619,-33.694 -21.093,-33.015 -24.473,-31.684C-27.866,-30.34 -30.78,-28.211 -33.229,-25.297L-33.229,-58.273L-45.405,-58.273L-45.405,28.013L-33.229,28.013L-33.229,-6.972C-33.229,-10.285 -32.431,-13.16 -30.86,-15.609C-29.277,-18.044 -27.241,-19.933 -24.712,-21.278C-22.197,-22.622 -19.469,-23.287 -16.555,-23.287C-13.641,-23.287 -10.926,-22.595 -8.397,-21.224C-5.882,-19.841 -3.846,-17.911 -2.316,-15.422C-0.772,-12.947 0,-10.046 0,-6.746L0,28.013L12.282,28.013L12.282,-6.852C12.282,-12.055 11.218,-16.687 9.089,-20.745C6.973,-24.804 3.938,-27.971 0,-30.26" style="fill:white;fill-rule:nonzero;"/>
    </g>
    <g transform="matrix(1,0,0,1,700.754,172.302)">
        <path d="M0,-75.414L-12.177,-75.414L-12.177,-60.284L-59.312,-60.284C-62.785,-60.284 -65.899,-59.472 -68.653,-57.861C-71.408,-56.251 -73.565,-54.096 -75.095,-51.421C-76.638,-48.746 -77.397,-45.818 -77.397,-42.678C-77.397,-38.885 -76.571,-35.718 -74.922,-33.163C-73.272,-30.595 -70.956,-28.664 -68.002,-27.361C-65.047,-26.07 -61.641,-25.417 -57.781,-25.417L-45.845,-25.417C-44.182,-25.417 -42.784,-25.072 -41.64,-24.407C-40.509,-23.741 -39.63,-22.849 -39.045,-21.745C-38.445,-20.64 -38.153,-19.469 -38.153,-18.206C-38.153,-16.861 -38.499,-15.597 -39.164,-14.426C-39.83,-13.242 -40.761,-12.296 -41.945,-11.578C-43.116,-10.872 -44.58,-10.527 -46.311,-10.527L-75.28,-10.527L-75.28,0L-44.899,0C-41.188,0 -37.94,-0.866 -35.146,-2.595C-32.351,-4.326 -30.115,-6.601 -28.465,-9.396C-26.815,-12.19 -25.977,-15.251 -25.977,-18.565C-25.977,-22.503 -26.788,-25.79 -28.398,-28.425C-30.022,-31.074 -32.324,-33.083 -35.318,-34.454C-38.313,-35.838 -41.985,-36.53 -46.311,-36.53L-57.901,-36.53C-60.19,-36.53 -61.974,-37.182 -63.277,-38.473C-64.582,-39.777 -65.221,-41.333 -65.221,-43.143C-65.221,-44.953 -64.582,-46.51 -63.277,-47.814C-61.974,-49.119 -60.257,-49.77 -58.128,-49.77L-12.177,-49.77L-12.177,-17.141C-12.177,-11.858 -10.659,-7.679 -7.626,-4.605C-4.592,-1.531 -0.399,0 4.963,0L19.509,0L19.509,-10.527L7.213,-10.527C4.924,-10.527 3.153,-11.165 1.89,-12.469C0.625,-13.774 0,-15.557 0,-17.846L0,-49.77L19.748,-49.77L19.748,-60.284L0,-60.284L0,-75.414Z" style="fill:white;fill-rule:nonzero;"/>
    </g>
    <g transform="matrix(1,0,0,1,735.034,145.116)">
        <path d="M0,-7.333C0.159,-9.382 0.611,-11.432 1.356,-13.481C2.103,-15.531 3.153,-17.354 4.497,-18.977C5.828,-20.587 7.491,-21.892 9.461,-22.876C11.431,-23.861 13.666,-24.354 16.195,-24.354C18.563,-24.354 20.626,-24.021 22.396,-23.342C24.18,-22.677 25.656,-21.745 26.827,-20.574C28.012,-19.39 28.996,-18.072 29.795,-16.608C30.58,-15.145 31.152,-13.614 31.498,-12.004C31.857,-10.38 32.03,-8.824 32.03,-7.333L0,-7.333ZM31.978,-30.435C27.839,-33.163 22.582,-34.52 16.195,-34.52C10.525,-34.52 5.495,-33.163 1.117,-30.435C-3.247,-27.72 -6.681,-23.981 -9.156,-19.204C-11.645,-14.439 -12.882,-9.023 -12.882,-2.955C-12.882,3.033 -11.472,8.29 -8.624,12.828C-5.789,17.353 -1.811,20.879 3.313,23.407C8.437,25.922 14.305,27.187 20.919,27.187L36.888,27.187L36.888,16.66L20.799,16.66C17.18,16.66 13.893,16.102 10.938,14.957C7.984,13.813 5.535,12.056 3.605,9.688C1.676,7.332 0.479,4.457 0,1.063L43.98,1.063C44.127,0.438 44.233,-0.373 44.273,-1.358C44.313,-2.343 44.327,-3.274 44.327,-4.139C44.327,-9.809 43.302,-14.932 41.253,-19.51C39.203,-24.074 36.116,-27.72 31.978,-30.435" style="fill:white;fill-rule:nonzero;"/>
    </g>
    <g transform="matrix(1,0,0,1,804.778,172.302)">
        <path d="M0,-60.283C-5.363,-60.283 -9.555,-58.766 -12.589,-55.732C-15.623,-52.698 -17.141,-48.506 -17.141,-43.143L-17.141,0L-4.964,0L-4.964,-42.437C-4.964,-44.726 -4.338,-46.51 -3.074,-47.814C-1.81,-49.118 -0.08,-49.77 2.129,-49.77L13.48,-49.77L13.48,-60.283L0,-60.283Z" style="fill:white;fill-rule:nonzero;"/>
    </g>
    <g transform="matrix(1,0,0,1,339.282,172.302)">
        <path d="M0,-82.746C-6.388,-82.746 -12.163,-81.655 -17.326,-79.499C-22.49,-77.33 -26.921,-74.336 -30.621,-70.517C-34.334,-66.684 -37.182,-62.279 -39.19,-57.275C-41.2,-52.272 -42.212,-46.962 -42.212,-41.373C-42.212,-35.704 -41.2,-30.354 -39.19,-25.35C-37.182,-20.348 -34.334,-15.956 -30.621,-12.177C-26.921,-8.397 -22.49,-5.416 -17.326,-3.247C-12.163,-1.078 -6.388,0 0,0L27.893,0L27.893,-45.977L-0.24,-45.977L-0.24,-34.759L15.011,-34.759L15.011,-11.231L0.226,-11.231C-5.443,-11.231 -10.526,-12.549 -15.024,-15.183C-19.509,-17.832 -23.035,-21.412 -25.604,-25.949C-28.159,-30.474 -29.437,-35.624 -29.437,-41.373C-29.437,-45.631 -28.718,-49.584 -27.254,-53.257C-25.79,-56.916 -23.728,-60.11 -21.053,-62.825C-18.364,-65.539 -15.211,-67.668 -11.591,-69.212C-7.972,-70.743 -3.992,-71.515 0.346,-71.515L27.893,-71.515L27.893,-82.746L0,-82.746Z" style="fill:white;fill-rule:nonzero;"/>
    </g>
    <defs>
        <linearGradient id="_Linear1" x1="0" y1="0" x2="1" y2="0" gradientUnits="userSpaceOnUse" gradientTransform="matrix(850,284.321,-95.1039,284.321,0,0)"><stop offset="0" style="stop-color:rgb(0,19,45);stop-opacity:1"/><stop offset="1" style="stop-color:rgb(0,45,107);stop-opacity:1"/></linearGradient>
        <linearGradient id="_Linear2" x1="0" y1="0" x2="1" y2="0" gradientUnits="userSpaceOnUse" gradientTransform="matrix(1,0,0,-1,0,-1.24954e-06)"><stop offset="0" style="stop-color:rgb(239,68,96);stop-opacity:1"/><stop offset="1" style="stop-color:rgb(253,175,64);stop-opacity:1"/></linearGradient>
        <linearGradient id="_Linear3" x1="0" y1="0" x2="1" y2="0" gradientUnits="userSpaceOnUse" gradientTransform="matrix(1,0,0,-1,0,-3.10198e-06)"><stop offset="0" style="stop-color:rgb(239,68,96);stop-opacity:1"/><stop offset="1" style="stop-color:rgb(253,175,64);stop-opacity:1"/></linearGradient>
    </defs>
</svg>
